<mxfile host="app.diagrams.net" modified="2023-02-21T07:49:09.157Z" agent="5.0 (Windows NT 10.0; Win64; x64) AppleWebKit/537.36 (KHTML, like Gecko) Chrome/110.0.0.0 Safari/537.36 Edg/110.0.1587.50" etag="9DgtnvsGdKV7WTgmk-bR" version="20.8.21" type="github">
  <diagram name="第 1 页" id="r6EBoZgPhOEHDouy-fFP">
    <mxGraphModel dx="1450" dy="645" grid="1" gridSize="10" guides="1" tooltips="1" connect="1" arrows="1" fold="1" page="0" pageScale="1" pageWidth="827" pageHeight="1169" math="0" shadow="0">
      <root>
        <mxCell id="0" />
        <mxCell id="1" parent="0" />
        <mxCell id="WI8g5jaF1l4ZYWc48LSM-1" value="产品BOM&#xa;" style="shape=image;verticalLabelPosition=bottom;labelBackgroundColor=default;verticalAlign=top;aspect=fixed;imageAspect=0;image=data:image/svg+xml,PHN2ZyB4bWxuczp4bGluaz0iaHR0cDovL3d3dy53My5vcmcvMTk5OS94bGluayIgeG1sbnM9Imh0dHA6Ly93d3cudzMub3JnLzIwMDAvc3ZnIiBoZWlnaHQ9IjgwMCIgd2lkdGg9IjgwMCIgdmVyc2lvbj0iMS4xIiB2aWV3Qm94PSIwIDAgMTAyNCAxMDI0IiBjbGFzcz0iaWNvbiI+PGRlZnM+PHN0eWxlIHR5cGU9InRleHQvY3NzIi8+PC9kZWZzPjxwYXRoIGZpbGw9IiMyMUEzNjYiIGQ9Ik02ODIuNjY2NjY3IDQyLjY2NjY2N0gyOTguNjY2NjY3Yy0yNS42IDAtNDIuNjY2NjY3IDE3LjA2NjY2Ny00Mi42NjY2NjcgNDIuNjY2NjY2djIxMy4zMzMzMzRsNDI2LjY2NjY2NyAyMTMuMzMzMzMzIDE3MC42NjY2NjYgNjQgMTcwLjY2NjY2Ny02NFYyOTguNjY2NjY3bC0zNDEuMzMzMzMzLTI1NnoiLz48cGF0aCBmaWxsPSIjMTA3QzQxIiBkPSJNMjU2IDI5OC42NjY2NjdoNDI2LjY2NjY2N3YyMTMuMzMzMzMzSDI1NnoiLz48cGF0aCBmaWxsPSIjMzNDNDgxIiBkPSJNMTAyNCA4NS4zMzMzMzN2MjEzLjMzMzMzNGgtMzQxLjMzMzMzM1Y0Mi42NjY2NjdoMjk4LjY2NjY2NmMyMS4zMzMzMzMgMCA0Mi42NjY2NjcgMjEuMzMzMzMzIDQyLjY2NjY2NyA0Mi42NjY2NjZ6Ii8+PHBhdGggZmlsbD0iIzE4NUMzNyIgZD0iTTY4Mi42NjY2NjcgNTEySDI1NnY0MjYuNjY2NjY3YzAgMjUuNiAxNy4wNjY2NjcgNDIuNjY2NjY3IDQyLjY2NjY2NyA0Mi42NjY2NjZoNjgyLjY2NjY2NmMyNS42IDAgNDIuNjY2NjY3LTE3LjA2NjY2NyA0Mi42NjY2NjctNDIuNjY2NjY2di0yMTMuMzMzMzM0bC0zNDEuMzMzMzMzLTIxMy4zMzMzMzN6Ii8+PHBhdGggb3BhY2l0eT0iLjUiIGQ9Ik01ODguOCAyNTZIMjU2djU5Ny4zMzMzMzNoMzI0LjI2NjY2N2MyOS44NjY2NjcgMCA1OS43MzMzMzMtMjkuODY2NjY3IDU5LjczMzMzMy01OS43MzMzMzNWMzA3LjJjMC0yOS44NjY2NjctMjEuMzMzMzMzLTUxLjItNTEuMi01MS4yeiIvPjxwYXRoIGZpbGw9IiMxMDdDNDEiIGQ9Ik01NDYuMTMzMzMzIDgxMC42NjY2NjdINTEuMkMyMS4zMzMzMzMgODEwLjY2NjY2NyAwIDc4OS4zMzMzMzMgMCA3NTkuNDY2NjY3VjI2NC41MzMzMzNDMCAyMzQuNjY2NjY3IDIxLjMzMzMzMyAyMTMuMzMzMzMzIDUxLjIgMjEzLjMzMzMzM2g0OTkuMmMyNS42IDAgNDYuOTMzMzMzIDIxLjMzMzMzMyA0Ni45MzMzMzMgNTEuMnY0OTkuMmMwIDI1LjYtMjEuMzMzMzMzIDQ2LjkzMzMzMy01MS4yIDQ2LjkzMzMzNHoiLz48cGF0aCBmaWxsPSIjRkZGRkZGIiBkPSJNMTQ1LjA2NjY2NyA2ODIuNjY2NjY3TDI1NiA1MTIgMTUzLjYgMzQxLjMzMzMzM2g4MS4wNjY2NjdsNTUuNDY2NjY2IDEwNi42NjY2NjdjOC41MzMzMzMgMTIuOCA4LjUzMzMzMyAyMS4zMzMzMzMgMTIuOCAyNS42bDEyLjgtMjUuNkwzNzUuNDY2NjY3IDM0MS4zMzMzMzNoNzYuOGwtMTAyLjQgMTcwLjY2NjY2NyAxMDYuNjY2NjY2IDE3MC42NjY2NjdoLTg1LjMzMzMzM2wtNjQtMTE5LjQ2NjY2N2MwLTQuMjY2NjY3LTQuMjY2NjY3LTguNTMzMzMzLTguNTMzMzMzLTE3LjA2NjY2NyAwIDQuMjY2NjY3LTQuMjY2NjY3IDguNTMzMzMzLTguNTMzMzM0IDE3LjA2NjY2N0wyMjYuMTMzMzMzIDY4Mi42NjY2NjdIMTQ1LjA2NjY2N3oiLz48cGF0aCBmaWxsPSIjMTA3QzQxIiBkPSJNNjgyLjY2NjY2NyA1MTJoMzQxLjMzMzMzM3YyMTMuMzMzMzMzaC0zNDEuMzMzMzMzeiIvPjwvc3ZnPg==;" vertex="1" parent="1">
          <mxGeometry x="5.684341886080802e-14" y="79.99999999999994" width="44.62" height="44.62" as="geometry" />
        </mxCell>
        <mxCell id="WI8g5jaF1l4ZYWc48LSM-2" value="法规禁用限用物质清单" style="shape=image;verticalLabelPosition=bottom;labelBackgroundColor=default;verticalAlign=top;aspect=fixed;imageAspect=0;image=data:image/svg+xml,PHN2ZyB4bWxuczp4bGluaz0iaHR0cDovL3d3dy53My5vcmcvMTk5OS94bGluayIgeG1sbnM9Imh0dHA6Ly93d3cudzMub3JnLzIwMDAvc3ZnIiBoZWlnaHQ9IjgwMCIgd2lkdGg9IjgwMCIgdmVyc2lvbj0iMS4xIiB2aWV3Qm94PSIwIDAgMTAyNCAxMDI0IiBjbGFzcz0iaWNvbiI+PGRlZnM+PHN0eWxlIHR5cGU9InRleHQvY3NzIi8+PC9kZWZzPjxwYXRoIGZpbGw9IiMyMUEzNjYiIGQ9Ik02ODIuNjY2NjY3IDQyLjY2NjY2N0gyOTguNjY2NjY3Yy0yNS42IDAtNDIuNjY2NjY3IDE3LjA2NjY2Ny00Mi42NjY2NjcgNDIuNjY2NjY2djIxMy4zMzMzMzRsNDI2LjY2NjY2NyAyMTMuMzMzMzMzIDE3MC42NjY2NjYgNjQgMTcwLjY2NjY2Ny02NFYyOTguNjY2NjY3bC0zNDEuMzMzMzMzLTI1NnoiLz48cGF0aCBmaWxsPSIjMTA3QzQxIiBkPSJNMjU2IDI5OC42NjY2NjdoNDI2LjY2NjY2N3YyMTMuMzMzMzMzSDI1NnoiLz48cGF0aCBmaWxsPSIjMzNDNDgxIiBkPSJNMTAyNCA4NS4zMzMzMzN2MjEzLjMzMzMzNGgtMzQxLjMzMzMzM1Y0Mi42NjY2NjdoMjk4LjY2NjY2NmMyMS4zMzMzMzMgMCA0Mi42NjY2NjcgMjEuMzMzMzMzIDQyLjY2NjY2NyA0Mi42NjY2NjZ6Ii8+PHBhdGggZmlsbD0iIzE4NUMzNyIgZD0iTTY4Mi42NjY2NjcgNTEySDI1NnY0MjYuNjY2NjY3YzAgMjUuNiAxNy4wNjY2NjcgNDIuNjY2NjY3IDQyLjY2NjY2NyA0Mi42NjY2NjZoNjgyLjY2NjY2NmMyNS42IDAgNDIuNjY2NjY3LTE3LjA2NjY2NyA0Mi42NjY2NjctNDIuNjY2NjY2di0yMTMuMzMzMzM0bC0zNDEuMzMzMzMzLTIxMy4zMzMzMzN6Ii8+PHBhdGggb3BhY2l0eT0iLjUiIGQ9Ik01ODguOCAyNTZIMjU2djU5Ny4zMzMzMzNoMzI0LjI2NjY2N2MyOS44NjY2NjcgMCA1OS43MzMzMzMtMjkuODY2NjY3IDU5LjczMzMzMy01OS43MzMzMzNWMzA3LjJjMC0yOS44NjY2NjctMjEuMzMzMzMzLTUxLjItNTEuMi01MS4yeiIvPjxwYXRoIGZpbGw9IiMxMDdDNDEiIGQ9Ik01NDYuMTMzMzMzIDgxMC42NjY2NjdINTEuMkMyMS4zMzMzMzMgODEwLjY2NjY2NyAwIDc4OS4zMzMzMzMgMCA3NTkuNDY2NjY3VjI2NC41MzMzMzNDMCAyMzQuNjY2NjY3IDIxLjMzMzMzMyAyMTMuMzMzMzMzIDUxLjIgMjEzLjMzMzMzM2g0OTkuMmMyNS42IDAgNDYuOTMzMzMzIDIxLjMzMzMzMyA0Ni45MzMzMzMgNTEuMnY0OTkuMmMwIDI1LjYtMjEuMzMzMzMzIDQ2LjkzMzMzMy01MS4yIDQ2LjkzMzMzNHoiLz48cGF0aCBmaWxsPSIjRkZGRkZGIiBkPSJNMTQ1LjA2NjY2NyA2ODIuNjY2NjY3TDI1NiA1MTIgMTUzLjYgMzQxLjMzMzMzM2g4MS4wNjY2NjdsNTUuNDY2NjY2IDEwNi42NjY2NjdjOC41MzMzMzMgMTIuOCA4LjUzMzMzMyAyMS4zMzMzMzMgMTIuOCAyNS42bDEyLjgtMjUuNkwzNzUuNDY2NjY3IDM0MS4zMzMzMzNoNzYuOGwtMTAyLjQgMTcwLjY2NjY2NyAxMDYuNjY2NjY2IDE3MC42NjY2NjdoLTg1LjMzMzMzM2wtNjQtMTE5LjQ2NjY2N2MwLTQuMjY2NjY3LTQuMjY2NjY3LTguNTMzMzMzLTguNTMzMzMzLTE3LjA2NjY2NyAwIDQuMjY2NjY3LTQuMjY2NjY3IDguNTMzMzMzLTguNTMzMzM0IDE3LjA2NjY2N0wyMjYuMTMzMzMzIDY4Mi42NjY2NjdIMTQ1LjA2NjY2N3oiLz48cGF0aCBmaWxsPSIjMTA3QzQxIiBkPSJNNjgyLjY2NjY2NyA1MTJoMzQxLjMzMzMzM3YyMTMuMzMzMzMzaC0zNDEuMzMzMzMzeiIvPjwvc3ZnPg==;" vertex="1" parent="1">
          <mxGeometry x="5.684341886080802e-14" y="159.99999999999994" width="44.62" height="44.62" as="geometry" />
        </mxCell>
        <mxCell id="WI8g5jaF1l4ZYWc48LSM-3" value="法规豁免条款清单" style="shape=image;verticalLabelPosition=bottom;labelBackgroundColor=default;verticalAlign=top;aspect=fixed;imageAspect=0;image=data:image/svg+xml,PHN2ZyB4bWxuczp4bGluaz0iaHR0cDovL3d3dy53My5vcmcvMTk5OS94bGluayIgeG1sbnM9Imh0dHA6Ly93d3cudzMub3JnLzIwMDAvc3ZnIiBoZWlnaHQ9IjgwMCIgd2lkdGg9IjgwMCIgdmVyc2lvbj0iMS4xIiB2aWV3Qm94PSIwIDAgMTAyNCAxMDI0IiBjbGFzcz0iaWNvbiI+PGRlZnM+PHN0eWxlIHR5cGU9InRleHQvY3NzIi8+PC9kZWZzPjxwYXRoIGZpbGw9IiMyMUEzNjYiIGQ9Ik02ODIuNjY2NjY3IDQyLjY2NjY2N0gyOTguNjY2NjY3Yy0yNS42IDAtNDIuNjY2NjY3IDE3LjA2NjY2Ny00Mi42NjY2NjcgNDIuNjY2NjY2djIxMy4zMzMzMzRsNDI2LjY2NjY2NyAyMTMuMzMzMzMzIDE3MC42NjY2NjYgNjQgMTcwLjY2NjY2Ny02NFYyOTguNjY2NjY3bC0zNDEuMzMzMzMzLTI1NnoiLz48cGF0aCBmaWxsPSIjMTA3QzQxIiBkPSJNMjU2IDI5OC42NjY2NjdoNDI2LjY2NjY2N3YyMTMuMzMzMzMzSDI1NnoiLz48cGF0aCBmaWxsPSIjMzNDNDgxIiBkPSJNMTAyNCA4NS4zMzMzMzN2MjEzLjMzMzMzNGgtMzQxLjMzMzMzM1Y0Mi42NjY2NjdoMjk4LjY2NjY2NmMyMS4zMzMzMzMgMCA0Mi42NjY2NjcgMjEuMzMzMzMzIDQyLjY2NjY2NyA0Mi42NjY2NjZ6Ii8+PHBhdGggZmlsbD0iIzE4NUMzNyIgZD0iTTY4Mi42NjY2NjcgNTEySDI1NnY0MjYuNjY2NjY3YzAgMjUuNiAxNy4wNjY2NjcgNDIuNjY2NjY3IDQyLjY2NjY2NyA0Mi42NjY2NjZoNjgyLjY2NjY2NmMyNS42IDAgNDIuNjY2NjY3LTE3LjA2NjY2NyA0Mi42NjY2NjctNDIuNjY2NjY2di0yMTMuMzMzMzM0bC0zNDEuMzMzMzMzLTIxMy4zMzMzMzN6Ii8+PHBhdGggb3BhY2l0eT0iLjUiIGQ9Ik01ODguOCAyNTZIMjU2djU5Ny4zMzMzMzNoMzI0LjI2NjY2N2MyOS44NjY2NjcgMCA1OS43MzMzMzMtMjkuODY2NjY3IDU5LjczMzMzMy01OS43MzMzMzNWMzA3LjJjMC0yOS44NjY2NjctMjEuMzMzMzMzLTUxLjItNTEuMi01MS4yeiIvPjxwYXRoIGZpbGw9IiMxMDdDNDEiIGQ9Ik01NDYuMTMzMzMzIDgxMC42NjY2NjdINTEuMkMyMS4zMzMzMzMgODEwLjY2NjY2NyAwIDc4OS4zMzMzMzMgMCA3NTkuNDY2NjY3VjI2NC41MzMzMzNDMCAyMzQuNjY2NjY3IDIxLjMzMzMzMyAyMTMuMzMzMzMzIDUxLjIgMjEzLjMzMzMzM2g0OTkuMmMyNS42IDAgNDYuOTMzMzMzIDIxLjMzMzMzMyA0Ni45MzMzMzMgNTEuMnY0OTkuMmMwIDI1LjYtMjEuMzMzMzMzIDQ2LjkzMzMzMy01MS4yIDQ2LjkzMzMzNHoiLz48cGF0aCBmaWxsPSIjRkZGRkZGIiBkPSJNMTQ1LjA2NjY2NyA2ODIuNjY2NjY3TDI1NiA1MTIgMTUzLjYgMzQxLjMzMzMzM2g4MS4wNjY2NjdsNTUuNDY2NjY2IDEwNi42NjY2NjdjOC41MzMzMzMgMTIuOCA4LjUzMzMzMyAyMS4zMzMzMzMgMTIuOCAyNS42bDEyLjgtMjUuNkwzNzUuNDY2NjY3IDM0MS4zMzMzMzNoNzYuOGwtMTAyLjQgMTcwLjY2NjY2NyAxMDYuNjY2NjY2IDE3MC42NjY2NjdoLTg1LjMzMzMzM2wtNjQtMTE5LjQ2NjY2N2MwLTQuMjY2NjY3LTQuMjY2NjY3LTguNTMzMzMzLTguNTMzMzMzLTE3LjA2NjY2NyAwIDQuMjY2NjY3LTQuMjY2NjY3IDguNTMzMzMzLTguNTMzMzM0IDE3LjA2NjY2N0wyMjYuMTMzMzMzIDY4Mi42NjY2NjdIMTQ1LjA2NjY2N3oiLz48cGF0aCBmaWxsPSIjMTA3QzQxIiBkPSJNNjgyLjY2NjY2NyA1MTJoMzQxLjMzMzMzM3YyMTMuMzMzMzMzaC0zNDEuMzMzMzMzeiIvPjwvc3ZnPg==;" vertex="1" parent="1">
          <mxGeometry x="5.684341886080802e-14" y="249.99999999999994" width="44.62" height="44.62" as="geometry" />
        </mxCell>
        <mxCell id="WI8g5jaF1l4ZYWc48LSM-4" value="权限&#xa;供应商Mapping&#xa;第三方手工确认&#xa;版本管理等" style="shape=image;verticalLabelPosition=bottom;labelBackgroundColor=default;verticalAlign=top;aspect=fixed;imageAspect=0;image=data:image/svg+xml,PHN2ZyB4bWxuczp4bGluaz0iaHR0cDovL3d3dy53My5vcmcvMTk5OS94bGluayIgeG1sbnM9Imh0dHA6Ly93d3cudzMub3JnLzIwMDAvc3ZnIiBoZWlnaHQ9IjgwMCIgd2lkdGg9IjgwMCIgdmVyc2lvbj0iMS4xIiB2aWV3Qm94PSIwIDAgMTAyNCAxMDI0IiBjbGFzcz0iaWNvbiI+PGRlZnM+PHN0eWxlIHR5cGU9InRleHQvY3NzIi8+PC9kZWZzPjxwYXRoIGZpbGw9IiMyMUEzNjYiIGQ9Ik02ODIuNjY2NjY3IDQyLjY2NjY2N0gyOTguNjY2NjY3Yy0yNS42IDAtNDIuNjY2NjY3IDE3LjA2NjY2Ny00Mi42NjY2NjcgNDIuNjY2NjY2djIxMy4zMzMzMzRsNDI2LjY2NjY2NyAyMTMuMzMzMzMzIDE3MC42NjY2NjYgNjQgMTcwLjY2NjY2Ny02NFYyOTguNjY2NjY3bC0zNDEuMzMzMzMzLTI1NnoiLz48cGF0aCBmaWxsPSIjMTA3QzQxIiBkPSJNMjU2IDI5OC42NjY2NjdoNDI2LjY2NjY2N3YyMTMuMzMzMzMzSDI1NnoiLz48cGF0aCBmaWxsPSIjMzNDNDgxIiBkPSJNMTAyNCA4NS4zMzMzMzN2MjEzLjMzMzMzNGgtMzQxLjMzMzMzM1Y0Mi42NjY2NjdoMjk4LjY2NjY2NmMyMS4zMzMzMzMgMCA0Mi42NjY2NjcgMjEuMzMzMzMzIDQyLjY2NjY2NyA0Mi42NjY2NjZ6Ii8+PHBhdGggZmlsbD0iIzE4NUMzNyIgZD0iTTY4Mi42NjY2NjcgNTEySDI1NnY0MjYuNjY2NjY3YzAgMjUuNiAxNy4wNjY2NjcgNDIuNjY2NjY3IDQyLjY2NjY2NyA0Mi42NjY2NjZoNjgyLjY2NjY2NmMyNS42IDAgNDIuNjY2NjY3LTE3LjA2NjY2NyA0Mi42NjY2NjctNDIuNjY2NjY2di0yMTMuMzMzMzM0bC0zNDEuMzMzMzMzLTIxMy4zMzMzMzN6Ii8+PHBhdGggb3BhY2l0eT0iLjUiIGQ9Ik01ODguOCAyNTZIMjU2djU5Ny4zMzMzMzNoMzI0LjI2NjY2N2MyOS44NjY2NjcgMCA1OS43MzMzMzMtMjkuODY2NjY3IDU5LjczMzMzMy01OS43MzMzMzNWMzA3LjJjMC0yOS44NjY2NjctMjEuMzMzMzMzLTUxLjItNTEuMi01MS4yeiIvPjxwYXRoIGZpbGw9IiMxMDdDNDEiIGQ9Ik01NDYuMTMzMzMzIDgxMC42NjY2NjdINTEuMkMyMS4zMzMzMzMgODEwLjY2NjY2NyAwIDc4OS4zMzMzMzMgMCA3NTkuNDY2NjY3VjI2NC41MzMzMzNDMCAyMzQuNjY2NjY3IDIxLjMzMzMzMyAyMTMuMzMzMzMzIDUxLjIgMjEzLjMzMzMzM2g0OTkuMmMyNS42IDAgNDYuOTMzMzMzIDIxLjMzMzMzMyA0Ni45MzMzMzMgNTEuMnY0OTkuMmMwIDI1LjYtMjEuMzMzMzMzIDQ2LjkzMzMzMy01MS4yIDQ2LjkzMzMzNHoiLz48cGF0aCBmaWxsPSIjRkZGRkZGIiBkPSJNMTQ1LjA2NjY2NyA2ODIuNjY2NjY3TDI1NiA1MTIgMTUzLjYgMzQxLjMzMzMzM2g4MS4wNjY2NjdsNTUuNDY2NjY2IDEwNi42NjY2NjdjOC41MzMzMzMgMTIuOCA4LjUzMzMzMyAyMS4zMzMzMzMgMTIuOCAyNS42bDEyLjgtMjUuNkwzNzUuNDY2NjY3IDM0MS4zMzMzMzNoNzYuOGwtMTAyLjQgMTcwLjY2NjY2NyAxMDYuNjY2NjY2IDE3MC42NjY2NjdoLTg1LjMzMzMzM2wtNjQtMTE5LjQ2NjY2N2MwLTQuMjY2NjY3LTQuMjY2NjY3LTguNTMzMzMzLTguNTMzMzMzLTE3LjA2NjY2NyAwIDQuMjY2NjY3LTQuMjY2NjY3IDguNTMzMzMzLTguNTMzMzM0IDE3LjA2NjY2N0wyMjYuMTMzMzMzIDY4Mi42NjY2NjdIMTQ1LjA2NjY2N3oiLz48cGF0aCBmaWxsPSIjMTA3QzQxIiBkPSJNNjgyLjY2NjY2NyA1MTJoMzQxLjMzMzMzM3YyMTMuMzMzMzMzaC0zNDEuMzMzMzMzeiIvPjwvc3ZnPg==;" vertex="1" parent="1">
          <mxGeometry x="5.684341886080802e-14" y="359.99999999999994" width="44.62" height="44.62" as="geometry" />
        </mxCell>
      </root>
    </mxGraphModel>
  </diagram>
</mxfile>
